<mxfile host="app.diagrams.net" modified="2023-10-17T04:40:07.563Z" agent="Mozilla/5.0 (Windows NT 10.0; Win64; x64; rv:109.0) Gecko/20100101 Firefox/118.0" etag="iL5NnAVlzbW7lMNlg5MR" version="22.0.4" type="github">
  <diagram id="C5RBs43oDa-KdzZeNtuy" name="Page-1">
    <mxGraphModel dx="880" dy="425" grid="1" gridSize="10" guides="1" tooltips="1" connect="1" arrows="1" fold="1" page="1" pageScale="1" pageWidth="827" pageHeight="1169" math="0" shadow="0">
      <root>
        <mxCell id="WIyWlLk6GJQsqaUBKTNV-0" />
        <mxCell id="WIyWlLk6GJQsqaUBKTNV-1" parent="WIyWlLk6GJQsqaUBKTNV-0" />
        <mxCell id="Y4EUPygcvIA3ewW4N_Kr-1" value="" style="edgeStyle=orthogonalEdgeStyle;rounded=0;orthogonalLoop=1;jettySize=auto;html=1;" edge="1" parent="WIyWlLk6GJQsqaUBKTNV-1" source="4YXhwaPJJYOt4yHIs_GL-11" target="Y4EUPygcvIA3ewW4N_Kr-0">
          <mxGeometry relative="1" as="geometry" />
        </mxCell>
        <mxCell id="4YXhwaPJJYOt4yHIs_GL-11" value="start" style="strokeWidth=2;html=1;shape=mxgraph.flowchart.terminator;whiteSpace=wrap;" parent="WIyWlLk6GJQsqaUBKTNV-1" vertex="1">
          <mxGeometry x="350" y="60" width="130" height="60" as="geometry" />
        </mxCell>
        <mxCell id="4YXhwaPJJYOt4yHIs_GL-19" value="" style="edgeStyle=orthogonalEdgeStyle;rounded=0;orthogonalLoop=1;jettySize=auto;html=1;" parent="WIyWlLk6GJQsqaUBKTNV-1" source="4YXhwaPJJYOt4yHIs_GL-16" target="4YXhwaPJJYOt4yHIs_GL-18" edge="1">
          <mxGeometry relative="1" as="geometry" />
        </mxCell>
        <mxCell id="4YXhwaPJJYOt4yHIs_GL-16" value="Ls" style="shape=parallelogram;perimeter=parallelogramPerimeter;whiteSpace=wrap;html=1;fixedSize=1;strokeWidth=2;" parent="WIyWlLk6GJQsqaUBKTNV-1" vertex="1">
          <mxGeometry x="355" y="500" width="120" height="60" as="geometry" />
        </mxCell>
        <mxCell id="4YXhwaPJJYOt4yHIs_GL-18" value="end" style="strokeWidth=2;html=1;shape=mxgraph.flowchart.terminator;whiteSpace=wrap;" parent="WIyWlLk6GJQsqaUBKTNV-1" vertex="1">
          <mxGeometry x="540" y="500" width="100" height="60" as="geometry" />
        </mxCell>
        <mxCell id="Y4EUPygcvIA3ewW4N_Kr-3" value="" style="edgeStyle=orthogonalEdgeStyle;rounded=0;orthogonalLoop=1;jettySize=auto;html=1;" edge="1" parent="WIyWlLk6GJQsqaUBKTNV-1" source="Y4EUPygcvIA3ewW4N_Kr-0" target="Y4EUPygcvIA3ewW4N_Kr-2">
          <mxGeometry relative="1" as="geometry" />
        </mxCell>
        <mxCell id="Y4EUPygcvIA3ewW4N_Kr-0" value="&lt;div&gt;Ls&lt;/div&gt;&lt;div&gt;a&lt;/div&gt;&lt;div&gt;t&lt;br&gt;&lt;/div&gt;" style="shape=parallelogram;perimeter=parallelogramPerimeter;whiteSpace=wrap;html=1;fixedSize=1;strokeWidth=2;" vertex="1" parent="WIyWlLk6GJQsqaUBKTNV-1">
          <mxGeometry x="355" y="200" width="120" height="60" as="geometry" />
        </mxCell>
        <mxCell id="Y4EUPygcvIA3ewW4N_Kr-4" value="" style="edgeStyle=orthogonalEdgeStyle;rounded=0;orthogonalLoop=1;jettySize=auto;html=1;" edge="1" parent="WIyWlLk6GJQsqaUBKTNV-1" source="Y4EUPygcvIA3ewW4N_Kr-2" target="4YXhwaPJJYOt4yHIs_GL-16">
          <mxGeometry relative="1" as="geometry" />
        </mxCell>
        <mxCell id="Y4EUPygcvIA3ewW4N_Kr-2" value="Ls = 1/2 x a x t" style="whiteSpace=wrap;html=1;strokeWidth=2;" vertex="1" parent="WIyWlLk6GJQsqaUBKTNV-1">
          <mxGeometry x="355" y="340" width="120" height="60" as="geometry" />
        </mxCell>
      </root>
    </mxGraphModel>
  </diagram>
</mxfile>
